<?xml version="1.0" encoding="iso-8859-1"?>
<!-- Generator: Adobe Illustrator 19.0.0, SVG Export Plug-In . SVG Version: 6.00 Build 0)  -->
<svg version="1.1" id="Layer_1" xmlns="http://www.w3.org/2000/svg" xmlns:xlink="http://www.w3.org/1999/xlink" x="0px" y="0px"
	 viewBox="0 0 459.093 459.093" style="enable-background:new 0 0 459.093 459.093;" xml:space="preserve">
<g>
	<g>
		<g>
			<path d="M268.001,38.241c-3.587-0.154-7.219-0.229-10.8-0.229c-68.632,0-133.349,27.785-182.224,78.23
				C26.627,166.146,0,231.494,0,300.252c0,5.827,0.219,11.913,0.625,17.893c0,0.065,0.174,5.994,0.939,9.639l-0.048,0.014
				c4.618,25.962,27.15,44.807,53.569,44.807c16.63,0,32.055-7.673,43.424-21.593c3.034-3.707,5.919-6.772,10.452-6.772
				c3.328,0,5.417,0.256,9.656,5.475c36.888,45.353,91.215,71.366,149.057,71.366c107.336,0,191.42-84.084,191.42-191.427
				C459.093,121.745,380.515,43.03,268.001,38.241z M267.674,405.724c-53.2,0-103.185-23.948-137.138-65.7
				c-6.431-7.916-12.684-11.141-21.576-11.141c-12.179,0-19.04,8.38-22.344,12.414c-8.404,10.288-19.599,15.954-31.532,15.954
				c-18.964,0-35.133-13.52-38.451-32.14l-0.007-0.055c-0.147-0.973-0.645-5.106-0.645-7.233l-0.017-0.526
				c-0.41-5.912-0.608-11.486-0.608-17.039c0-133.823,110.752-246.88,241.841-246.88c3.362,0,6.758,0.072,10.148,0.215
				c103.854,4.424,176.387,76.824,176.387,176.067C443.733,328.392,366.401,405.724,267.674,405.724z"/>
			<path d="M291.567,293.641c-23.484,0-42.592,19.098-42.592,42.585s19.108,42.595,42.592,42.595
				c23.484,0,42.592-19.104,42.592-42.592C334.158,312.742,315.051,293.641,291.567,293.641z M291.567,363.464
				c-15.015,0-27.232-12.22-27.232-27.235c0-15.015,12.22-27.228,27.232-27.228s27.232,12.213,27.232,27.228
				S306.582,363.464,291.567,363.464z"/>
			<path d="M366.012,230.579c-20.931,0-37.956,17.029-37.956,37.956c0,20.927,17.026,37.953,37.956,37.953
				s37.96-17.026,37.96-37.953C403.971,247.608,386.942,230.579,366.012,230.579z M366.012,291.128
				c-12.459,0-22.596-10.141-22.596-22.593c0-12.459,10.138-22.593,22.596-22.593c12.466,0,22.603,10.131,22.6,22.593
				C388.611,280.987,378.474,291.128,366.012,291.128z"/>
			<path d="M363.643,214.492c19.688,0,35.703-16.015,35.703-35.707c0-19.681-16.015-35.693-35.703-35.693s-35.7,16.012-35.7,35.693
				C327.943,198.477,343.955,214.492,363.643,214.492z M363.643,158.452c11.216,0,20.343,9.12,20.343,20.333
				c0,11.22-9.127,20.347-20.343,20.347c-11.216,0-20.34-9.127-20.34-20.347C343.303,167.572,352.427,158.452,363.643,158.452z"/>
			<path d="M296.888,158.746c18.446,0,33.451-14.998,33.451-33.44c0-18.449-15.005-33.454-33.451-33.454
				c-18.446,0-33.451,15.008-33.451,33.454C263.438,143.744,278.446,158.746,296.888,158.746z M296.888,107.214
				c9.974,0,18.091,8.117,18.091,18.094c0,9.97-8.117,18.08-18.091,18.08c-9.974,0-18.091-8.11-18.091-18.08
				C278.798,115.331,286.915,107.214,296.888,107.214z"/>
			<path d="M218.242,89.523c-17.196,0-31.191,13.995-31.191,31.194c0,17.2,13.995,31.194,31.191,31.194
				c17.203,0,31.198-13.995,31.198-31.194C249.44,103.518,235.445,89.523,218.242,89.523z M218.242,136.555
				c-8.731,0-15.831-7.103-15.831-15.834c0-8.731,7.1-15.834,15.831-15.834c8.731,0,15.838,7.103,15.838,15.834
				C234.08,129.452,226.976,136.555,218.242,136.555z"/>
			<path d="M144.241,125.803c-15.957,0-28.942,12.981-28.942,28.935c0,15.957,12.984,28.942,28.942,28.942
				s28.935-12.984,28.938-28.942C173.179,138.784,160.198,125.803,144.241,125.803z M144.241,168.323
				c-7.489,0-13.582-6.096-13.582-13.582c0-7.485,6.096-13.575,13.582-13.575c7.485,0,13.575,6.089,13.578,13.575
				C157.819,162.231,151.729,168.323,144.241,168.323z"/>
		</g>
	</g>
</g>
<g>
</g>
<g>
</g>
<g>
</g>
<g>
</g>
<g>
</g>
<g>
</g>
<g>
</g>
<g>
</g>
<g>
</g>
<g>
</g>
<g>
</g>
<g>
</g>
<g>
</g>
<g>
</g>
<g>
</g>
</svg>
